<svg width="40" height="40" viewBox="0 0 40 40" fill="none" xmlns="http://www.w3.org/2000/svg">
<g clip-path="url(#clip0_336_142)">
<path d="M0.650072 0.709392C0.124884 1.23458 0.0771524 2.05639 0.506837 2.63551L0.650072 2.80142L8.6078 10.7592C4.8169 13.4208 1.9836 17.3962 0.806305 22.0994C0.607922 22.8919 1.08958 23.6952 1.8821 23.8937C2.67465 24.0919 3.47794 23.6104 3.67634 22.8177C4.72066 18.6459 7.29987 15.1469 10.7378 12.8886L14.3071 16.4582C12.9116 17.8812 12.0511 19.8309 12.0511 21.9814C12.0511 26.3388 15.5834 29.871 19.9407 29.871C22.0914 29.871 24.0409 29.0104 25.4641 27.615L37.1393 39.2905C37.717 39.8682 38.6535 39.8682 39.2312 39.2905C39.7564 38.7655 39.8042 37.9436 39.3744 37.3645L39.2312 37.1986L27.173 25.139L27.1754 25.1361L24.8083 22.7734L19.1478 17.114L19.1517 17.1124L13.4688 11.4355L13.4712 11.4319L11.236 9.20213L2.7421 0.709392C2.16441 0.1317 1.22776 0.1317 0.650072 0.709392ZM16.3985 18.5513L23.371 25.5238C22.4835 26.3834 21.2738 26.9124 19.9407 26.9124C17.2174 26.9124 15.0097 24.7047 15.0097 21.9814C15.0097 20.6483 15.5388 19.4386 16.3985 18.5513ZM19.9407 7.17947C17.9677 7.17947 16.0533 7.47152 14.2426 8.01774L16.6825 10.456C17.7393 10.2472 18.829 10.1381 19.9407 10.1381C27.6785 10.1381 34.3586 15.4246 36.2071 22.8268C36.4052 23.6193 37.2081 24.1014 38.0008 23.9035C38.7935 23.7055 39.2756 22.9025 39.0775 22.1098C36.902 13.3979 29.0442 7.17947 19.9407 7.17947ZM20.3247 14.1011L27.8223 21.5976C27.6215 17.5406 24.373 14.2951 20.3247 14.1011Z" fill="white"/>
</g>
<defs>
<clipPath id="clip0_336_142">
<rect width="40" height="40" fill="white"/>
</clipPath>
</defs>
</svg>
