<svg width="40" height="40" viewBox="0 0 40 40" fill="none" xmlns="http://www.w3.org/2000/svg">
<path d="M8.66693 10.7591C4.87603 13.4208 2.04273 17.3962 0.865435 22.0994C0.667053 22.8919 1.14871 23.6952 1.94123 23.8936C2.73378 24.0919 3.53707 23.6104 3.73547 22.8177C4.77979 18.6459 7.35901 15.1468 10.797 12.8886C12.7601 11.6807 14.0764 11.1587 16.7416 10.456C17.7984 10.2471 18.8882 10.138 19.9998 10.138C27.7377 10.138 34.4177 15.4245 36.2663 22.8268C36.4643 23.6193 37.2672 24.1013 38.06 23.9035C38.8527 23.7055 39.3347 22.9025 39.1367 22.1098C36.9611 13.3978 29.1033 7.17945 19.9998 7.17945C18.0268 7.17945 16.1124 7.4715 14.3017 8.01771C11.8459 8.87964 10.6381 9.50074 8.66693 10.7591Z" fill="white"/>
<path d="M31.335 10.7591C35.1259 13.4208 37.9592 17.3962 39.1365 22.0994C39.3349 22.8919 38.8532 23.6952 38.0607 23.8936C37.2682 24.0919 36.4649 23.6104 36.2665 22.8177C35.2221 18.6459 32.6429 15.1468 29.205 12.8886C27.2419 11.6807 25.9255 11.1587 23.2603 10.456C22.2035 10.2471 21.1138 10.138 20.0021 10.138C12.2643 10.138 5.58419 15.4245 3.73567 22.8268C3.53764 23.6193 2.73469 24.1013 1.94199 23.9035C1.14928 23.7055 0.667234 22.9025 0.865261 22.1098C3.0408 13.3978 10.8986 7.17944 20.0021 7.17944C21.9751 7.17944 23.8895 7.4715 25.7002 8.01771C28.156 8.87964 29.3638 9.50073 31.335 10.7591Z" fill="white"/>
<path d="M27.87 22.0119C27.87 26.3583 24.3466 29.8817 20.0002 29.8817C15.6538 29.8817 12.1304 26.3583 12.1304 22.0119C12.1304 17.6655 15.6538 14.1421 20.0002 14.1421C24.3466 14.1421 27.87 17.6655 27.87 22.0119ZM15.0093 22.0119C15.0093 24.7683 17.2438 27.0028 20.0002 27.0028C22.7566 27.0028 24.9911 24.7683 24.9911 22.0119C24.9911 19.2555 22.7566 17.0211 20.0002 17.0211C17.2438 17.0211 15.0093 19.2555 15.0093 22.0119Z" fill="white"/>
</svg>
