<svg width="18" height="18" viewBox="0 0 18 18" fill="none" xmlns="http://www.w3.org/2000/svg">
<g clip-path="url(#clip0_95_4)">
<path d="M7.33307 18C7.15623 18 6.98663 17.9256 6.86158 17.7933C6.73654 17.6609 6.66629 17.4813 6.66629 17.2941V10.507L0.485275 3.31059C0.241959 3.02673 0.0817001 2.67423 0.0239473 2.29582C-0.0338056 1.91743 0.013431 1.52942 0.159924 1.17889C0.306418 0.828362 0.545868 0.530383 0.849216 0.321118C1.15257 0.111854 1.50677 0.000301844 1.86884 0H16.1312C16.4933 0.000301844 16.8474 0.111854 17.1508 0.321118C17.4541 0.530383 17.6936 0.828362 17.8401 1.17889C17.9866 1.52942 18.0338 1.91743 17.976 2.29582C17.9183 2.67423 17.7581 3.02673 17.5148 3.31059L11.3337 10.507V14.4706C11.3336 14.5763 11.3111 14.6807 11.2678 14.776C11.2246 14.8713 11.1616 14.9551 11.0837 15.0212L7.7498 17.8447C7.6316 17.9451 7.48461 17.9999 7.33307 18ZM1.86884 1.41177C1.76508 1.41204 1.66362 1.44414 1.57674 1.50419C1.48986 1.56424 1.42128 1.64966 1.37931 1.75011C1.33734 1.85056 1.32375 1.96174 1.34022 2.07019C1.35669 2.17864 1.4025 2.27972 1.47211 2.36118L7.82648 9.77297C7.93535 9.89966 7.99697 10.064 7.99985 10.2353V15.8259L10.0002 14.1177V10.2353C9.99974 10.0592 10.0616 9.8892 10.1735 9.75883L16.5279 2.34706C16.5934 2.26523 16.6356 2.16547 16.6498 2.05929C16.6639 1.95312 16.6494 1.84487 16.608 1.74706C16.5665 1.64925 16.4996 1.56585 16.4153 1.50652C16.3309 1.44719 16.2324 1.41434 16.1312 1.41177H1.86884Z" fill="white"/>
</g>
<defs>
<clipPath id="clip0_95_4">
<rect width="18" height="18" fill="white"/>
</clipPath>
</defs>
</svg>
