<svg width="17" height="21" viewBox="0 0 17 21" fill="none" xmlns="http://www.w3.org/2000/svg">
<g clip-path="url(#clip0_708_45)">
<path fill-rule="evenodd" clip-rule="evenodd" d="M16.22 11.882C16.0991 11.9389 15.9902 12.0183 15.899 12.116C15.7576 12.2557 15.5898 12.3659 15.4054 12.4403C15.2211 12.5146 15.0238 12.5515 14.825 12.549H14.834C15.0343 12.5527 15.2333 12.5164 15.4193 12.442C15.6053 12.3677 15.7745 12.2568 15.917 12.116C16.0082 12.0183 16.1171 11.9389 16.238 11.882C16.3143 12.3171 16.3518 12.7582 16.35 13.2C16.3516 13.9816 16.2335 14.759 16 15.505C15.9691 15.5287 15.94 15.5548 15.913 15.583C15.938 15.5553 15.9674 15.532 16 15.514C15.5151 17.134 14.5231 18.5557 13.17 19.57L12.581 20.012C12.2876 20.2297 11.9323 20.3481 11.567 20.35H5.09997C4.73462 20.348 4.3794 20.2296 4.08597 20.012L3.49997 19.57C2.51193 18.829 1.71064 17.8674 1.15997 16.762C0.957477 16.3619 0.792117 15.9442 0.66597 15.514C0.693886 15.5292 0.719202 15.5488 0.74097 15.572C0.717578 15.5479 0.692516 15.5255 0.66597 15.505C0.432406 14.759 0.314373 13.9816 0.31597 13.2C0.314336 12.7612 0.351481 12.3232 0.42697 11.891L0.41097 11.883C0.732684 9.94676 1.75702 8.19717 3.28797 6.96895C3.67288 6.66065 3.98342 6.26962 4.19653 5.82488C4.40964 5.38014 4.51984 4.89311 4.51897 4.39995V3.44995H12.111V4.39995C12.1105 4.89261 12.221 5.37904 12.4341 5.82323C12.6472 6.26742 12.9574 6.65797 13.342 6.96595C14.8729 8.19417 15.8973 9.94376 16.219 11.88L16.22 11.882ZM2.91997 15.582C3.11329 15.386 3.35918 15.2502 3.62797 15.191C3.35801 15.25 3.11101 15.3862 2.91697 15.583L2.91997 15.582ZM12.648 11.683H12.657C12.458 11.6802 12.2605 11.7171 12.076 11.7914C11.8914 11.8658 11.7235 11.9761 11.582 12.116C11.4395 12.2568 11.2703 12.3677 11.0843 12.442C10.8983 12.5164 10.6993 12.5527 10.499 12.549H10.49C10.6889 12.5517 10.8864 12.5148 11.071 12.4405C11.2555 12.3661 11.4235 12.2558 11.565 12.116C11.7075 11.975 11.8769 11.8641 12.0631 11.7897C12.2493 11.7153 12.4475 11.679 12.648 11.683ZM8.31497 11.683H8.32397C8.12519 11.6804 7.92788 11.7173 7.7435 11.7916C7.55912 11.866 7.39136 11.9762 7.24997 12.116C7.10751 12.2568 6.93828 12.3677 6.75228 12.442C6.56627 12.5164 6.36725 12.5527 6.16697 12.549H6.15797C6.35692 12.5517 6.55442 12.5148 6.73898 12.4405C6.92353 12.3661 7.09146 12.2558 7.23297 12.116C7.37543 11.9751 7.54465 11.8642 7.73066 11.7899C7.91667 11.7155 8.11468 11.6792 8.31497 11.683ZM3.98197 11.683H3.99097C3.79202 11.6802 3.59452 11.7171 3.40996 11.7914C3.22541 11.8658 3.05748 11.9761 2.91597 12.116C2.77351 12.2568 2.60428 12.3677 2.41828 12.442C2.23227 12.5164 2.03326 12.5527 1.83297 12.549H1.82397C2.02292 12.5517 2.22042 12.5148 2.40498 12.4405C2.58953 12.3661 2.75746 12.2558 2.89897 12.116C3.04143 11.9751 3.21065 11.8642 3.39666 11.7899C3.58267 11.7155 3.78168 11.6792 3.98197 11.683Z" fill="#FFFEFE"/>
<path d="M8.5 17C9.39002 17 10.26 16.7361 11.0001 16.2416C11.7401 15.7471 12.3169 15.0443 12.6575 14.2221C12.9981 13.3998 13.0872 12.495 12.9135 11.6221C12.7399 10.7492 12.3113 9.94736 11.682 9.31802C11.0526 8.68869 10.2508 8.2601 9.37791 8.08647C8.50499 7.91283 7.60019 8.00195 6.77792 8.34254C5.95566 8.68314 5.25285 9.25991 4.75839 9.99994C4.26392 10.74 4 11.61 4 12.5C4 13.6935 4.47411 14.8381 5.31802 15.682C6.16193 16.5259 7.30653 17 8.5 17Z" fill="#C10930"/>
<path d="M8.5 16C9.19223 16 9.86892 15.7947 10.4445 15.4101C11.0201 15.0256 11.4687 14.4789 11.7336 13.8394C11.9985 13.1999 12.0678 12.4961 11.9327 11.8172C11.7977 11.1383 11.4644 10.5146 10.9749 10.0251C10.4854 9.53564 9.86175 9.2023 9.18282 9.06725C8.50388 8.9322 7.80015 9.00152 7.16061 9.26642C6.52107 9.53133 5.97444 9.97993 5.58986 10.5555C5.20527 11.1311 5 11.8078 5 12.5C5 13.4283 5.36875 14.3185 6.02513 14.9749C6.6815 15.6313 7.57174 16 8.5 16Z" fill="#F5F5F5"/>
<path d="M8.5 11L8.964 11.987L10 12.146L9.25 12.915L9.427 14L8.5 13.487L7.573 14L7.75 12.915L7 12.146L8.037 11.988L8.5 11Z" fill="#C10930"/>
<path d="M11.643 3.99997H4.357C4.04536 3.99864 3.73719 3.93446 3.45093 3.81126C3.16467 3.68806 2.90621 3.50838 2.691 3.28297C2.24649 2.81801 1.99891 2.19923 2 1.55597V0.666971C1.99949 0.491583 2.06686 0.322798 2.188 0.195971C2.24635 0.133569 2.31677 0.0836657 2.39498 0.0492868C2.47319 0.014908 2.55757 -0.00323024 2.643 -0.00402832H13.357C13.4424 -0.00323024 13.5268 0.014908 13.605 0.0492868C13.6832 0.0836657 13.7537 0.133569 13.812 0.195971C13.9331 0.322798 14.0005 0.491583 14 0.666971V1.55597C14.0014 2.19957 13.7538 2.81876 13.309 3.28397C13.0937 3.5092 12.8352 3.6887 12.549 3.81172C12.2627 3.93475 11.9546 3.99877 11.643 3.99997ZM3.286 1.33297V1.55497C3.28118 1.84418 3.3912 2.12352 3.59195 2.33176C3.7927 2.54001 4.06781 2.66019 4.357 2.66597H11.643C11.9322 2.66019 12.2073 2.54001 12.4081 2.33176C12.6088 2.12352 12.7188 1.84418 12.714 1.55497V1.33297H3.286Z" fill="#C10930"/>
<path d="M11.6719 21H5.32793C4.83105 20.9988 4.34804 20.8359 3.95193 20.536L3.37793 20.101C2.3433 19.316 1.50081 18.3059 0.914238 17.1471C0.327665 15.9884 0.012377 14.7114 -0.0077597 13.4128C-0.0278964 12.1143 0.247646 10.8281 0.79801 9.65178C1.34837 8.47542 2.15914 7.43969 3.16893 6.62297C3.47291 6.37781 3.7179 6.06747 3.8858 5.71488C4.05369 5.3623 4.1402 4.97649 4.13893 4.58597V3.64197C4.13871 3.47155 4.20594 3.30798 4.32593 3.18697C4.38486 3.12759 4.45497 3.08046 4.5322 3.04829C4.60943 3.01613 4.69227 2.99957 4.77593 2.99957C4.85959 2.99957 4.94243 3.01613 5.01966 3.04829C5.09689 3.08046 5.167 3.12759 5.22593 3.18697C5.34592 3.30798 5.41315 3.47155 5.41293 3.64197V4.58597C5.41473 5.16879 5.28554 5.74457 5.0349 6.27076C4.78427 6.79695 4.41861 7.26009 3.96493 7.62597C3.12132 8.30647 2.44147 9.16791 1.97568 10.1466C1.50989 11.1252 1.27006 12.1961 1.27393 13.28C1.27522 14.401 1.53469 15.5067 2.03223 16.5114C2.52977 17.516 3.252 18.3925 4.14293 19.073L4.71693 19.508C4.89255 19.6409 5.10664 19.7132 5.32693 19.714H11.6719C11.8922 19.7132 12.1063 19.6409 12.2819 19.508L12.8569 19.073C13.7356 18.4063 14.451 17.5484 14.9491 16.5644C15.4473 15.5803 15.715 14.4959 15.732 13.3931C15.7491 12.2903 15.515 11.198 15.0476 10.199C14.5801 9.20005 13.8915 8.3205 13.0339 7.62697C12.5801 7.26124 12.2143 6.79812 11.9637 6.2719C11.713 5.74568 11.5839 5.16983 11.5859 4.58697V3.64297C11.5858 3.47257 11.653 3.30904 11.7729 3.18797C11.8319 3.12859 11.902 3.08146 11.9792 3.04929C12.0564 3.01713 12.1393 3.00057 12.2229 3.00057C12.3066 3.00057 12.3894 3.01713 12.4667 3.04929C12.5439 3.08146 12.614 3.12859 12.6729 3.18797C12.7928 3.30904 12.86 3.47257 12.8599 3.64297V4.58697C12.8587 4.97749 12.9452 5.3633 13.1131 5.71588C13.281 6.06847 13.526 6.37881 13.8299 6.62397C14.8233 7.42523 15.6239 8.43946 16.1725 9.5917C16.7212 10.7439 17.004 12.0048 16.9999 13.281C16.9979 14.6005 16.6922 15.9018 16.1066 17.0843C15.5211 18.2667 14.6712 19.2986 13.6229 20.1L13.0479 20.534C12.652 20.8345 12.169 20.998 11.6719 21Z" fill="#C10930"/>
</g>
<defs>
<clipPath id="clip0_708_45">
<rect width="17" height="21" fill="white"/>
</clipPath>
</defs>
</svg>
