<svg width="16" height="16" viewBox="0 0 16 16" fill="none" xmlns="http://www.w3.org/2000/svg">
<g clip-path="url(#clip0_37_2)">
<path d="M8.00005 14.7308C6.21493 14.7308 4.50293 14.0217 3.24067 12.7594C1.97841 11.4971 1.26928 9.78511 1.26928 8C1.26928 6.21489 1.97841 4.50289 3.24067 3.24063C4.50293 1.97837 6.21493 1.26923 8.00005 1.26923C9.78516 1.26923 11.4972 1.97837 12.7595 3.24063C14.0217 4.50289 14.7308 6.21489 14.7308 8C14.7308 9.78511 14.0217 11.4971 12.7595 12.7594C11.4972 14.0217 9.78516 14.7308 8.00005 14.7308ZM8.00005 15.6923C10.0402 15.6923 11.9967 14.8819 13.4393 13.4393C14.8819 11.9967 15.6924 10.0401 15.6924 8C15.6924 5.95987 14.8819 4.0033 13.4393 2.56072C11.9967 1.11813 10.0402 0.307693 8.00005 0.307693C5.95992 0.307693 4.00335 1.11813 2.56077 2.56072C1.11818 4.0033 0.307739 5.95987 0.307739 8C0.307739 10.0401 1.11818 11.9967 2.56077 13.4393C4.00335 14.8819 5.95992 15.6923 8.00005 15.6923Z" fill="black" stroke="black" stroke-width="0.4"/>
<path d="M8.92995 6.588L6.63995 6.875L6.55795 7.255L7.00795 7.33799C7.30196 7.408 7.35995 7.51401 7.29595 7.807L6.55795 11.275C6.36395 12.172 6.66295 12.594 7.36595 12.594C7.91095 12.594 8.54395 12.342 8.83095 11.996L8.91895 11.58C8.71895 11.756 8.42695 11.826 8.23295 11.826C7.95795 11.826 7.85795 11.633 7.92895 11.293L8.92995 6.588ZM8.99995 4.5C8.99995 4.76522 8.8946 5.01957 8.70706 5.2071C8.51952 5.39465 8.26517 5.5 7.99995 5.5C7.73473 5.5 7.48038 5.39465 7.29285 5.2071C7.1053 5.01957 6.99995 4.76522 6.99995 4.5C6.99995 4.23478 7.1053 3.98043 7.29285 3.7929C7.48038 3.60535 7.73473 3.5 7.99995 3.5C8.26517 3.5 8.51952 3.60535 8.70706 3.7929C8.8946 3.98043 8.99995 4.23478 8.99995 4.5Z" fill="black"/>
</g>
<defs>
<clipPath id="clip0_37_2">
<rect width="16" height="16" fill="white"/>
</clipPath>
</defs>
</svg>
