<svg width="20" height="25" viewBox="0 0 20 25" fill="none" xmlns="http://www.w3.org/2000/svg">
<g clip-path="url(#clip0_715_65)">
<path fill-rule="evenodd" clip-rule="evenodd" d="M19.0825 14.1452C18.9403 14.213 18.8121 14.3076 18.7048 14.4238C18.5385 14.5901 18.3411 14.7214 18.1242 14.8099C17.9073 14.8984 17.6752 14.9423 17.4413 14.9393H17.4519C17.6875 14.9438 17.9217 14.9005 18.1405 14.812C18.3593 14.7234 18.5584 14.5914 18.726 14.4238C18.8333 14.3075 18.9614 14.213 19.1037 14.1452C19.1935 14.6632 19.2376 15.1883 19.2354 15.7143C19.2373 16.6448 19.0984 17.5702 18.8237 18.4583C18.7873 18.4866 18.7531 18.5177 18.7213 18.5512C18.7507 18.5183 18.7853 18.4905 18.8237 18.469C18.2532 20.3976 17.0862 22.0901 15.4942 23.2976L14.8013 23.8238C14.4561 24.083 14.0382 24.224 13.6084 24.2262H6.00012C5.5703 24.2239 5.15239 24.0829 4.80718 23.8238L4.11777 23.2976C2.95537 22.4155 2.01267 21.2708 1.36483 19.9547C1.1266 19.4785 0.932061 18.9812 0.783652 18.469C0.816495 18.4872 0.846278 18.5105 0.871887 18.5381C0.844367 18.5094 0.814882 18.4828 0.783652 18.4583C0.508871 17.5702 0.370009 16.6448 0.371887 15.7143C0.369965 15.1919 0.413665 14.6705 0.502475 14.1559L0.483652 14.1464C0.862139 11.8414 2.06724 9.75857 3.86836 8.2964C4.3212 7.92938 4.68654 7.46386 4.93725 6.93441C5.18797 6.40496 5.31762 5.82517 5.31659 5.23807V4.10712H14.2484V5.23807C14.2479 5.82456 14.3778 6.40366 14.6285 6.93245C14.8792 7.46124 15.2442 7.92618 15.6966 8.29283C17.4977 9.755 18.7028 11.8378 19.0813 14.1428L19.0825 14.1452ZM3.43542 18.55C3.66285 18.3167 3.95213 18.1551 4.26836 18.0845C3.95076 18.1548 3.66017 18.3169 3.43189 18.5512L3.43542 18.55ZM14.8801 13.9083H14.8907C14.6567 13.9051 14.4243 13.949 14.2072 14.0375C13.99 14.126 13.7925 14.2573 13.626 14.4238C13.4584 14.5914 13.2593 14.7234 13.0405 14.812C12.8217 14.9005 12.5875 14.9438 12.3519 14.9393H12.3413C12.5754 14.9425 12.8077 14.8986 13.0248 14.8101C13.242 14.7216 13.4395 14.5903 13.606 14.4238C13.7737 14.256 13.973 14.1239 14.1921 14.0354C14.4111 13.9468 14.6443 13.9036 14.8801 13.9083ZM9.78248 13.9083H9.79306C9.5592 13.9052 9.32707 13.9492 9.11016 14.0377C8.89324 14.1262 8.69588 14.2574 8.52953 14.4238C8.36193 14.5914 8.16284 14.7234 7.94401 14.812C7.72518 14.9005 7.49105 14.9438 7.25542 14.9393H7.24483C7.47888 14.9425 7.71124 14.8986 7.92837 14.8101C8.14549 14.7216 8.34305 14.5903 8.50953 14.4238C8.67713 14.2561 8.87622 14.1241 9.09505 14.0356C9.31388 13.9471 9.54684 13.9038 9.78248 13.9083ZM4.68483 13.9083H4.69542C4.46136 13.9051 4.229 13.949 4.01188 14.0375C3.79475 14.126 3.5972 14.2573 3.43071 14.4238C3.26311 14.5914 3.06402 14.7234 2.84519 14.812C2.62636 14.9005 2.39222 14.9438 2.15659 14.9393H2.146C2.38006 14.9425 2.61242 14.8986 2.82954 14.8101C3.04667 14.7216 3.24423 14.5903 3.41071 14.4238C3.57831 14.2561 3.7774 14.1241 3.99623 14.0356C4.21506 13.9471 4.4492 13.9038 4.68483 13.9083Z" fill="#FFFEFE"/>
<path d="M9.99993 20.2381C11.047 20.2381 12.0706 19.9239 12.9412 19.3353C13.8118 18.7466 14.4904 17.9099 14.8911 16.931C15.2918 15.9521 15.3966 14.875 15.1923 13.8358C14.988 12.7966 14.4838 11.8421 13.7434 11.0929C13.003 10.3437 12.0597 9.83345 11.0328 9.62674C10.0058 9.42004 8.94133 9.52613 7.97396 9.9316C7.00658 10.3371 6.17976 11.0237 5.59803 11.9047C5.0163 12.7857 4.70581 13.8214 4.70581 14.8809C4.70581 16.3018 5.26358 17.6644 6.25642 18.669C7.24926 19.6737 8.59584 20.2381 9.99993 20.2381Z" fill="#B9012D"/>
<path d="M9.99997 19.0476C10.8144 19.0476 11.6105 18.8033 12.2876 18.3454C12.9648 17.8876 13.4925 17.2368 13.8042 16.4755C14.1158 15.7141 14.1974 14.8763 14.0385 14.0681C13.8796 13.2598 13.4875 12.5174 12.9116 11.9347C12.3357 11.352 11.602 10.9551 10.8033 10.7944C10.0045 10.6336 9.17662 10.7161 8.42422 11.0315C7.67181 11.3468 7.02873 11.8809 6.57627 12.5661C6.12382 13.2513 5.88232 14.0569 5.88232 14.881C5.88232 15.986 6.31615 17.0458 7.08836 17.8272C7.86056 18.6086 8.9079 19.0476 9.99997 19.0476Z" fill="#F5F5F5"/>
<path d="M10.0001 13.0952L10.5459 14.2702L11.7648 14.4595L10.8824 15.375L11.0906 16.6666L10.0001 16.0559L8.90947 16.6666L9.1177 15.375L8.23535 14.4595L9.45535 14.2714L10.0001 13.0952Z" fill="#B9012D"/>
<path d="M13.6977 4.76191H5.12597C4.75934 4.76032 4.39678 4.68392 4.06 4.53725C3.72323 4.39059 3.41915 4.17668 3.16597 3.90833C2.64302 3.35481 2.35174 2.61816 2.35303 1.85238V0.794048C2.35242 0.585253 2.43168 0.384319 2.57421 0.233334C2.64286 0.159045 2.7257 0.0996369 2.81771 0.0587097C2.90973 0.0177825 3.009 -0.00381064 3.1095 -0.00476074H15.7142C15.8147 -0.00381064 15.914 0.0177825 16.006 0.0587097C16.098 0.0996369 16.1809 0.159045 16.2495 0.233334C16.392 0.384319 16.4713 0.585253 16.4707 0.794048V1.85238C16.4723 2.61857 16.181 3.3557 15.6577 3.90953C15.4045 4.17766 15.1003 4.39134 14.7636 4.5378C14.4268 4.68426 14.0643 4.76048 13.6977 4.76191ZM3.86597 1.58691V1.85119C3.8603 2.19549 3.98973 2.52803 4.22591 2.77594C4.46208 3.02386 4.78574 3.16693 5.12597 3.17381H13.6977C14.038 3.16693 14.3616 3.02386 14.5978 2.77594C14.834 2.52803 14.9634 2.19549 14.9577 1.85119V1.58691H3.86597Z" fill="#FFA5B8"/>
<path d="M13.7318 25H6.26824C5.68367 24.9987 5.11543 24.8048 4.64941 24.4476L3.97412 23.9298C2.75691 22.9952 1.76575 21.7927 1.07566 20.4133C0.385574 19.0339 0.0146474 17.5137 -0.0090429 15.9677C-0.0327331 14.4218 0.291434 12.8907 0.938922 11.4903C1.58641 10.0899 2.54025 8.85683 3.72824 7.88455C4.08586 7.59269 4.37409 7.22324 4.57161 6.8035C4.76914 6.38375 4.87091 5.92445 4.86941 5.45955V4.33574C4.86915 4.13287 4.94825 3.93813 5.08941 3.79407C5.15875 3.72338 5.24122 3.66727 5.33209 3.62898C5.42295 3.5907 5.5204 3.57098 5.61883 3.57098C5.71725 3.57098 5.8147 3.5907 5.90557 3.62898C5.99643 3.66727 6.0789 3.72338 6.14824 3.79407C6.28941 3.93813 6.3685 4.13287 6.36824 4.33574V5.45955C6.37035 6.15339 6.21836 6.83884 5.9235 7.46526C5.62864 8.09167 5.19845 8.64303 4.66471 9.0786C3.67222 9.88871 2.87241 10.9142 2.32442 12.0793C1.77642 13.2444 1.49427 14.5192 1.49883 15.8096C1.50034 17.1442 1.80561 18.4605 2.39095 19.6564C2.97628 20.8524 3.82597 21.8959 4.87412 22.706L5.54941 23.2238C5.75603 23.3821 6.0079 23.4682 6.26706 23.4691H13.7318C13.9909 23.4682 14.2428 23.3821 14.4494 23.2238L15.1259 22.706C16.1596 21.9123 17.0013 20.8911 17.5873 19.7196C18.1733 18.5481 18.4883 17.257 18.5084 15.9442C18.5284 14.6313 18.2531 13.331 17.7031 12.1418C17.1532 10.9525 16.3431 9.90542 15.3341 9.07979C14.8002 8.6444 14.3699 8.09307 14.075 7.46661C13.7801 6.84016 13.6282 6.15462 13.6306 5.46074V4.33693C13.6305 4.13408 13.7095 3.93939 13.8506 3.79526C13.9199 3.72457 14.0024 3.66846 14.0933 3.63018C14.1841 3.59189 14.2816 3.57217 14.38 3.57217C14.4784 3.57217 14.5759 3.59189 14.6667 3.63018C14.7576 3.66846 14.8401 3.72457 14.9094 3.79526C15.0505 3.93939 15.1295 4.13408 15.1294 4.33693V5.46074C15.1279 5.92564 15.2297 6.38494 15.4272 6.80468C15.6247 7.22443 15.913 7.59388 16.2706 7.88574C17.4392 8.83962 18.3811 10.047 19.0266 11.4188C19.6721 12.7905 20.0048 14.2914 20 15.8107C19.9976 17.3816 19.638 18.9308 18.9491 20.3385C18.2602 21.7462 17.2603 22.9746 16.0271 23.9286L15.3506 24.4453C14.8847 24.803 14.3166 24.9977 13.7318 25Z" fill="#FFA5B8"/>
</g>
<defs>
<clipPath id="clip0_715_65">
<rect width="20" height="25" fill="white"/>
</clipPath>
</defs>
</svg>
