<svg width="16" height="16" viewBox="0 0 16 16" fill="none" xmlns="http://www.w3.org/2000/svg">
<g clip-path="url(#clip0_145_2)">
<path d="M8.99999 2.78667C8.91158 2.78667 8.8268 2.75155 8.76429 2.68904C8.70178 2.62652 8.66666 2.54174 8.66666 2.45333V1.33333C8.66666 0.966 8.36732 0.666667 7.99999 0.666667C7.63266 0.666667 7.33332 0.966 7.33332 1.33333V2.45333C7.33332 2.54174 7.2982 2.62652 7.23569 2.68904C7.17318 2.75155 7.0884 2.78667 6.99999 2.78667C6.91158 2.78667 6.8268 2.75155 6.76429 2.68904C6.70178 2.62652 6.66666 2.54174 6.66666 2.45333V1.33333C6.66666 0.598 7.26466 0 7.99999 0C8.73532 0 9.33332 0.598 9.33332 1.33333V2.45333C9.33332 2.54174 9.2982 2.62652 9.23569 2.68904C9.17318 2.75155 9.0884 2.78667 8.99999 2.78667ZM7.99999 16C6.71332 16 5.66666 14.9533 5.66666 13.6667C5.66666 13.5783 5.70178 13.4935 5.76429 13.431C5.8268 13.3685 5.91158 13.3333 5.99999 13.3333C6.0884 13.3333 6.17318 13.3685 6.23569 13.431C6.2982 13.4935 6.33332 13.5783 6.33332 13.6667C6.33332 14.5853 7.08132 15.3333 7.99999 15.3333C8.91866 15.3333 9.66666 14.5853 9.66666 13.6667C9.66666 13.5783 9.70178 13.4935 9.76429 13.431C9.8268 13.3685 9.91158 13.3333 9.99999 13.3333C10.0884 13.3333 10.1732 13.3685 10.2357 13.431C10.2982 13.4935 10.3333 13.5783 10.3333 13.6667C10.3333 14.9533 9.28666 16 7.99999 16Z" fill="black"/>
<path d="M13.6667 14H2.33333C2.12924 13.9993 1.93025 13.9362 1.763 13.8193C1.59575 13.7023 1.46823 13.537 1.39752 13.3456C1.32682 13.1541 1.3163 12.9456 1.36738 12.7481C1.41846 12.5505 1.5287 12.3732 1.68333 12.24C2.20044 11.8047 2.61609 11.2616 2.90112 10.6487C3.18615 10.0358 3.33366 9.36794 3.33333 8.692V6.66667C3.33333 4.09333 5.42666 2 7.99999 2C10.5733 2 12.6667 4.09333 12.6667 6.66667V8.692C12.6667 10.0607 13.266 11.352 14.3113 12.2353C14.4678 12.3677 14.5798 12.5448 14.6323 12.7428C14.6848 12.9409 14.6753 13.1503 14.605 13.3427C14.5347 13.5351 14.407 13.7014 14.2392 13.8189C14.0714 13.9365 13.8715 13.9997 13.6667 14ZM7.99999 2.66667C5.79399 2.66667 3.99999 4.46067 3.99999 6.66667V8.692C4.00073 9.46374 3.83279 10.2263 3.50794 10.9264C3.18308 11.6264 2.70915 12.247 2.11933 12.7447C2.06695 12.7886 2.02935 12.8476 2.01165 12.9137C1.99394 12.9797 1.99697 13.0496 2.02033 13.1139C2.0437 13.1782 2.08626 13.2337 2.14225 13.2729C2.19824 13.3122 2.26495 13.3333 2.33333 13.3333H13.6667C13.7348 13.3333 13.8013 13.3125 13.8572 13.2735C13.9131 13.2346 13.9558 13.1794 13.9794 13.1155C14.003 13.0516 14.0064 12.9819 13.9893 12.916C13.9721 12.8501 13.9351 12.791 13.8833 12.7467C13.293 12.2488 12.8185 11.628 12.4932 10.9276C12.1679 10.2273 11.9996 9.46424 12 8.692V6.66667C12 4.46067 10.206 2.66667 7.99999 2.66667Z" fill="black"/>
</g>
<defs>
<clipPath id="clip0_145_2">
<rect width="16" height="16" fill="white"/>
</clipPath>
</defs>
</svg>
