<svg width="18" height="18" viewBox="0 0 18 18" fill="none" xmlns="http://www.w3.org/2000/svg">
<g clip-path="url(#clip0_95_20)">
<path d="M15.3 18C12.15 18 5.85 18 2.7 18C1.17 18 0 16.7 0 15C0 12.5 0 7.5 0 5C0 3.3 1.17 2 2.7 2C5.85 2 12.15 2 15.3 2C16.83 2 18 3.3 18 5C18 7.5 18 12.5 18 15C18 16.7 16.83 18 15.3 18ZM2.7 3.78238C2.16 3.78238 1.5 4.4 1.5 5C1.5 7.5 1.5 12.5 1.5 15C1.5 15.6 2.16 16.2829 2.7 16.2829C5.85 16.2829 12.15 16.2829 15.3 16.2829C15.84 16.2829 16.5 15.6 16.5 15C16.5 12.5 16.5 7.5 16.5 5C16.5 4.4 15.84 3.78238 15.3 3.78238C12.15 3.78238 5.85 3.78238 2.7 3.78238ZM13.68 12.5C13.68 11.3 13.68 8.8 13.68 7.6C13.68 7.2 13.59 7.1 13.41 7C13.23 6.9 13.05 6.9 12.78 7.1C12.33 7.5 11.88 7.9 11.52 8.2C11.25 8.4 11.16 8.8 11.34 9.1C11.52 9.4 11.8975 9.4806 12.15 9.2C12.51 8.8 12.51 8.8 12.51 8.8C12.51 8.8 12.51 11.6 12.51 12.5C12.51 13 12.78 13.2 13.05 13.2C13.41 13.2 13.68 13 13.68 12.5ZM7.02 12.5C7.02 12.2 6.84 11.9 6.39 11.9C5.94 11.9 4.77 11.9 4.77 11.9C5.58 11.1 6.93 10.2 6.93 8.9C6.93 7.8 6.12 6.9 5.04 6.9C4.32 6.9 3.6 7.4 3.33 8.2C3.24 8.5 3.33 8.9 3.6 9C3.87 9.1 4.23 9 4.32 8.7C4.41 8.4 4.68 8.2 4.95 8.2C5.49 8.2 5.76 8.5 5.76 9C5.76 9.5 5.04 10.1 4.5 10.6C3.78 11.2 3.15 11.9 3.15 12.6C3.15 12.9 3.33 13.2 3.78 13.2C4.5 13.2 5.67 13.2 6.39 13.2C6.84 13.2 7.02 12.9 7.02 12.5ZM9.72 8C9.72 8.4 9.45 8.8 9 8.8C8.55 8.8 8.28 8.4 8.28 8C8.28 7.6 8.55 7.2 9 7.2C9.45 7.2 9.72 7.6 9.72 8ZM9.72 12C9.72 12.4 9.45 12.8 9 12.8C8.55 12.8 8.28 12.4 8.28 12C8.28 11.6 8.55 11.2 9 11.2C9.45 11.2 9.72 11.6 9.72 12Z" fill="white"/>
<path d="M12.5 1C12.5 0.447715 12.9477 0 13.5 0C14.0523 0 14.5 0.447715 14.5 1V2H12.5V1Z" fill="white"/>
<path d="M3.5 1C3.5 0.447715 3.94772 0 4.5 0C5.05228 0 5.5 0.447715 5.5 1V2H3.5V1Z" fill="white"/>
</g>
<defs>
<clipPath id="clip0_95_20">
<rect width="18" height="18" fill="white"/>
</clipPath>
</defs>
</svg>
