<svg width="16" height="16" viewBox="0 0 16 16" fill="none" xmlns="http://www.w3.org/2000/svg">
<g clip-path="url(#clip0_67_286)">
<path d="M15.0602 9.15156C14.8857 8.95925 14.6468 8.84641 14.3874 8.83384C14.1897 8.82438 13.9991 8.87375 13.8345 8.9745C13.7455 8.72603 13.5559 8.50575 13.2128 8.43797C12.6421 8.32522 12.2211 8.70175 12.1661 8.75394C12.0547 8.61584 11.8965 8.492 11.6822 8.44044C10.9817 8.27203 10.5262 8.70606 10.5071 8.72462C10.5022 8.7295 10.4973 8.73453 10.4927 8.73975L9.40622 9.96856C9.31128 9.83206 9.16925 9.70378 8.98 9.58494C8.97894 9.58428 8.97787 9.58362 8.97678 9.58297L7.49625 8.68062C7.37519 8.60053 6.74816 8.25506 5.71047 8.87219C5.03134 9.27612 3.58884 9.97416 3.02916 10.2419C2.86344 10.0127 2.59406 9.86312 2.29025 9.86312H1.59903C1.09641 9.86316 0.6875 10.2721 0.6875 10.7747V12.6832C0.6875 12.8385 0.813406 12.9644 0.96875 12.9644C1.12409 12.9644 1.25 12.8385 1.25 12.6832V10.7747C1.25 10.5822 1.40659 10.4257 1.59903 10.4257H2.29025C2.48269 10.4257 2.63928 10.5823 2.63928 10.7747V14.3335C2.63928 14.3337 2.63928 14.3338 2.63928 14.334V14.5572C2.63928 14.7497 2.48269 14.9062 2.29025 14.9062H1.59903C1.40659 14.9062 1.25 14.7497 1.25 14.5572V13.7769C1.25 13.6216 1.12409 13.4957 0.96875 13.4957C0.813406 13.4957 0.6875 13.6216 0.6875 13.7769V14.5572C0.6875 15.0598 1.09641 15.4688 1.59903 15.4688H2.29025C2.75031 15.4688 3.13166 15.1261 3.19294 14.6826C4.37194 14.9084 5.77953 14.9907 6.68384 14.9907C9.13872 14.9907 10.9805 14.167 11.1386 14.0236L14.9936 10.5249C15.1859 10.3504 15.2987 10.1114 15.3113 9.85203C15.3239 9.59263 15.2347 9.34384 15.0602 9.15156ZM12.556 9.15928C12.5583 9.15697 12.7982 8.92934 13.1038 8.98984C13.3131 9.03119 13.3412 9.23734 13.3371 9.36766L10.6121 11.5743C10.5046 11.5758 10.3066 11.5755 10.0506 11.5616L12.5528 9.16247C12.5539 9.16138 12.555 9.16031 12.556 9.15928ZM10.9045 9.12325C10.9411 9.09184 11.1847 8.89947 11.5506 8.98734C11.6473 9.01059 11.7134 9.08 11.7565 9.14662L9.31056 11.4917C9.16962 11.4727 9.02297 11.4493 8.87309 11.4207L10.9045 9.12325ZM14.6156 10.1084L10.7779 13.5913C10.5169 13.7394 8.86272 14.4282 6.68388 14.4282C5.71169 14.4282 4.29394 14.3297 3.20178 14.1111V10.7829C3.70825 10.5416 5.25891 9.79528 5.998 9.35566C6.75187 8.90728 7.13328 9.11644 7.17666 9.14334C7.18578 9.15109 7.18669 9.15069 7.199 9.15819L8.68234 10.0623C8.74953 10.1034 8.81334 10.1504 8.87019 10.2051C8.91956 10.2525 8.97934 10.3123 8.9855 10.3843C8.99081 10.4467 8.94269 10.4984 8.90156 10.5393C8.23594 11.2006 7.49066 10.9784 7.39369 10.9456C7.20312 10.8506 7.02091 10.7416 6.85294 10.6162C6.72853 10.5232 6.55225 10.5487 6.45931 10.6732C6.36631 10.7976 6.39188 10.9738 6.51631 11.0668C8.08819 12.241 10.6206 12.1389 10.7277 12.1339C10.7876 12.1312 10.8451 12.1093 10.8918 12.0716L14.0528 9.51184C14.0569 9.50853 14.061 9.50506 14.0649 9.5015C14.1459 9.42794 14.251 9.39006 14.3601 9.39566C14.4694 9.40094 14.5701 9.4485 14.6436 9.52956C14.7172 9.61059 14.7548 9.71544 14.7495 9.82475C14.7442 9.93412 14.6967 10.0348 14.6156 10.1084ZM2.47641 7.30528C2.36656 7.19544 2.36656 7.01737 2.47641 6.90753L5.91847 3.4655C6.02834 3.35566 6.20637 3.35566 6.31625 3.4655L7.81059 4.95984L10.3826 2.38788L9.69388 1.69919C9.62053 1.62584 9.59353 1.51813 9.62356 1.41884C9.65359 1.31956 9.73581 1.24491 9.8375 1.22453L13.2695 0.536719C13.3617 0.518281 13.4571 0.547094 13.5236 0.613625C13.5902 0.680125 13.619 0.775531 13.6005 0.86775L12.9127 4.29972C12.8923 4.40141 12.8176 4.48363 12.7183 4.51366C12.6191 4.54369 12.5113 4.51666 12.438 4.44334L11.7493 3.75466L10.465 5.03897C10.3552 5.14881 10.1771 5.14881 10.0673 5.03897C9.95741 4.92912 9.95741 4.75106 10.0673 4.64122L11.5504 3.15803C11.6032 3.10528 11.6748 3.07566 11.7493 3.07566C11.8239 3.07566 11.8954 3.10528 11.9482 3.15803L12.4643 3.67416L12.966 1.17122L10.463 1.67284L10.9792 2.189C11.0319 2.24175 11.0616 2.31328 11.0616 2.38788C11.0616 2.46247 11.0319 2.534 10.9792 2.58675L8.00947 5.55647C7.89959 5.66631 7.72156 5.66631 7.61169 5.55647L6.11734 4.06213L3.07303 7.10641L3.64428 7.67769L5.91844 5.40356C6.02831 5.29372 6.20634 5.29372 6.31622 5.40356L7.81056 6.89791L9.29384 5.41466C9.40372 5.30481 9.58175 5.30481 9.69162 5.41466C9.80147 5.5245 9.80147 5.70256 9.69162 5.81241L8.00947 7.49456C7.89959 7.60441 7.72156 7.60441 7.61169 7.49456L6.11734 6.00022L3.84319 8.27434C3.79044 8.32709 3.71887 8.35672 3.64431 8.35672C3.56975 8.35672 3.49816 8.32709 3.44544 8.27434L2.47641 7.30528Z" fill="white"/>
</g>
<defs>
<clipPath id="clip0_67_286">
<rect width="16" height="16" fill="white"/>
</clipPath>
</defs>
</svg>
